# xmcd
#
# Track frame offsets: 
#        150
#        18800
#        44467
#        65770
#        97852
#        112860
#        130592
#        152035
#        169975
#        183870
#        203505
#        218760
#        240399
#        262159
#
# Disc length: 3909 seconds
#
# Revision: 0
# Processed by: cddbd v1.5.2PL0 Copyright (c) Steve Scherf et al.
# Submitted via: ExactAudioCopy v1.3
#
DISCID=b20f430e
DTITLE=Glen David Andrews - Portrait of the Treme Prince
DYEAR=2019
DGENRE=Blues
TTITLE0=Melt Your Heart Like Butter
TTITLE1=Flat Like That (Get That Gator)
TTITLE2=Over In Glory Land
TTITLE3=St. James Infirmary
TTITLE4=Surrender
TTITLE5=Kool Breeze
TTITLE6=Reefer Song
TTITLE7=Dumaine St. Blues
TTITLE8=I'm a Cowboy
TTITLE9=You Don't Know
TTITLE10=Something To Believe In
TTITLE11=Rock Star (Like Mike)
TTITLE12=Whatever Happened To Peanut
TTITLE13=Walk Through Heaven's Gate
EXTD=
EXTT0=
EXTT1=
EXTT2=
EXTT3=
EXTT4=
EXTT5=
EXTT6=
EXTT7=
EXTT8=
EXTT9=
EXTT10=
EXTT11=
EXTT12=
EXTT13=
PLAYORDER=
